<svg width="280" height="72" viewBox="0 0 280 72" fill="none" xmlns="http://www.w3.org/2000/svg">


  <!-- Symbol -->
  <circle cx="36" cy="36" r="26" stroke="#2C2825" stroke-width="1"/>
  <path d="M36 14 C36 14 36 12 36 11" stroke="#2C2825" stroke-width="1" stroke-linecap="round"/>
  <path d="M36 11 C36 11 31 11 29.5 13.5 C28 16 30.5 18.5 36 18.5 C41.5 18.5 44.5 21 43.5 24.5 C42.5 28 36 30 29 34.5 C25.5 37 24 39.5 25 42 C26 44.5 30 46 36 46 C42 46 46 44.5 47 42" stroke="#2C2825" stroke-width="1" stroke-linecap="round" fill="none"/>
  <circle cx="36" cy="11" r="1.8" fill="#2C2825"/>

  <!-- Divider -->
  <line x1="78" y1="22" x2="78" y2="50" stroke="#9B8E85" stroke-width="0.5" opacity="0.5"/>

  <!-- Wordmark -->
  <text x="92" y="46" font-family="Georgia, 'Times New Roman', serif" font-style="italic" font-weight="400" font-size="32" fill="#2C2825" letter-spacing="1.5">OnulFit</text>

  <!-- Sub text -->
  <text x="93" y="60" font-family="'Helvetica Neue', Arial, sans-serif" font-weight="200" font-size="9" fill="#9B8E85" letter-spacing="5">AI STYLIST</text>
</svg>
